<svg id="Layer_5" enable-background="new 0 0 64 64" height="512" viewBox="0 0 64 64" width="512" xmlns="http://www.w3.org/2000/svg"><g><path d="m19 58c0-1.654-1.346-3-3-3s-3 1.346-3 3 1.346 3 3 3 3-1.346 3-3zm-3 1c-.552 0-1-.449-1-1s.448-1 1-1 1 .449 1 1-.448 1-1 1z"/><path d="m29 58c0-1.654-1.346-3-3-3s-3 1.346-3 3 1.346 3 3 3 3-1.346 3-3zm-3 1c-.552 0-1-.449-1-1s.448-1 1-1 1 .449 1 1-.448 1-1 1z"/><path d="m41 19h8v-6h-8zm2-4h4v2h-4z"/><path d="m52.816 21h10.184v-10h-2.66l-13-10h-4.508l-29 10h-4.301l-4.957 5.95c-.37.442-.574 1.004-.574 1.582 0 1.361 1.107 2.468 2.469 2.468h4.531v6h-10v10h10c0 1.103.897 2 2 2h2c1.103 0 2-.897 2-2h10v-10h-10v-6h20.184c.302.847.969 1.514 1.816 1.816v14.018l-7.401 4.983c-1.278-1.706-3.309-2.817-5.599-2.817h-6c-2.757 0-5 2.243-5 5v1h-9c-2.757 0-5 2.243-5 5v5h9.026c-.635.838-1.026 1.87-1.026 3 0 2.757 2.243 5 5 5h13 1 23.566.434 4c3.859 0 7-3.14 7-7v-6-1-.451l-12-10.589v-15.144c.847-.302 1.514-.969 1.816-1.816zm-7.816 12c-1.641 0-3.088.806-4 2.031v-12.031h8v12.031c-.912-1.225-2.359-2.031-4-2.031zm-18 20h-6v-8h5c.552 0 1 .449 1 1zm6 2v-4.679l6-4.057v12.736c0 .696.148 1.375.421 2h-7.446c.634-.838 1.025-1.87 1.025-3s-.391-2.162-1.026-3zm8 4c0-1.654 1.346-3 3-3 .614 0 1.208.189 1.717.547l.974.685.507-1.077c.334-.713 1.025-1.155 1.802-1.155.927 0 1.71.631 1.931 1.504l-1.565 2.609c-.239.399-.366.855-.366 1.321 0 .195.026.384.068.566h-7.28c-.496-.549-.788-1.254-.788-2zm11.129-4.492c-.311-.391-.695-.716-1.129-.966v-6.342l3.698 3.026zm-3.129-1.508c-1.177 0-2.283.53-3.033 1.406-.618-.267-1.284-.406-1.967-.406-1.13 0-2.162.391-3 1.026v-10.114l2.984-2.017c.328.068.668.105 1.016.105.264 0 .518-.038.771-.078l3.229 2.642zm-4-12c-1.654 0-3-1.346-3-3s1.346-3 3-3 3 1.346 3 3-1.346 3-3 3zm6-21c0 .551-.448 1-1 1h-10c-.552 0-1-.449-1-1v-8c0-.551.448-1 1-1h10c.552 0 1 .449 1 1zm-7.307-17h2.614l2.25 6h-7.114zm17.307 16h-8v-6h8zm-8.184-8c-.333-.935-1.112-1.654-2.085-1.899l-1.565-4.173 7.894 6.072zm-11.498-7.362-2.048 5.462c-.973.246-1.751.964-2.085 1.899h-17.217zm-18.318 10.029 4 5.333h-8zm-6 4.666-4-5.333h8zm8-5.333h8l-4 5.333zm10.5 0h1.5v6h-6zm-29.5 5.532c0-.109.038-.215.109-.3l4.36-5.232h.031l4.5 6h-8.531c-.259 0-.469-.21-.469-.468zm5 10.468v2h-8v-2zm-8 6v-2h8v2zm14 0v-2h8v2zm8-6v2h-8v-2zm-10 8h-2v-16h2zm25.054 1.535c.147 1.358.83 2.544 1.844 3.355l-8.898 6.016v-1.906c0-.851-.16-1.664-.44-2.42zm-37.054 11.465c0-1.654 1.346-3 3-3h11v-3c0-1.654 1.346-3 3-3h6c2.757 0 5 2.243 5 5v7h-2v-7c0-1.654-1.346-3-3-3h-5c-1.103 0-2 .897-2 2v8h-5-11zm24 11h-1-10-2c-1.654 0-3-1.346-3-3s1.346-3 3-3h2 10 2c1.654 0 3 1.346 3 3s-1.346 3-3 3zm34-5c0 2.757-2.243 5-5 5h-4-.434c-.312 0-.566-.254-.566-.566 0-.102.028-.203.081-.291l5.485-9.143h4.434zm-4.643-7-8.471-6.931c.871-.62 1.521-1.514 1.854-2.553l10.749 9.484z"/><path d="m5 49h2v2h-2z"/><path d="m9 49h2v2h-2z"/><path d="m13 49h2v2h-2z"/></g></svg>