<?xml version="1.0"?>
<svg xmlns="http://www.w3.org/2000/svg" id="Layer_1" enable-background="new 0 0 512 512" height="512px" viewBox="0 0 512 512" width="512px"><g><g><path d="m482.94 0h-333.88c-16.024 0-29.06 13.036-29.06 29.06v164.941h-12c-8.284 0-15 6.716-15 15s6.716 15 15 15h12v18.837c-21.089 2.342-40.73 9.553-57.762 20.494-.013-.018-.022-.037-.035-.055l-7.593-10.621.301-.208c6.807-4.722 8.499-14.067 3.777-20.874-4.721-6.809-14.066-8.498-20.874-3.778l-25.567 17.731c-6.807 4.722-8.499 14.067-3.777 20.874 2.913 4.201 7.587 6.453 12.339 6.453 2.949 0 5.928-.867 8.535-2.675l.612-.425 7.842 10.969c.372.521.773 1.009 1.196 1.468-24.095 24.396-38.994 57.893-38.994 94.809 0 74.439 60.561 135 135 135 70.395 0 128.368-54.161 134.461-123h213.48c16.023 0 29.06-13.036 29.06-29.061v-330.879c-.001-16.024-13.037-29.06-29.061-29.06zm-.94 60h-30.001v-30h30.001zm-60.001-30v30h-271.999v-30zm-226.704 286.704c2.929 2.93 6.768 4.394 10.607 4.394 3.838 0 7.678-1.465 10.606-4.394l2.554-2.554c10.301 13.743 17.31 30.086 19.862 47.85h-3.653c-8.284 0-15 6.716-15 15s6.716 15 15 15h3.653c-2.552 17.763-9.56 34.106-19.862 47.85l-2.554-2.554c-5.858-5.857-15.355-5.857-21.213 0-5.857 5.858-5.857 15.355 0 21.213l2.554 2.554c-13.743 10.301-30.086 17.309-47.85 19.861v-3.652c0-8.284-6.716-15-15-15s-15 6.716-15 15v3.652c-17.763-2.552-34.106-9.56-47.849-19.862l2.554-2.553c5.858-5.857 5.858-15.355 0-21.213-5.857-5.857-15.355-5.857-21.213 0l-2.554 2.553c-10.301-13.743-17.309-30.086-19.861-47.849h3.653c8.284 0 15-6.716 15-15s-6.716-15-15-15h-3.653c2.552-17.763 9.56-34.106 19.862-47.849l2.554 2.553c2.929 2.929 6.768 4.394 10.606 4.394s7.678-1.465 10.606-4.394c5.858-5.857 5.858-15.355 0-21.213l-2.554-2.553c13.743-10.302 30.086-17.31 47.849-19.862v3.652c0 8.284 6.716 15 15 15s15-6.716 15-15v-3.652c17.763 2.552 34.106 9.56 47.85 19.861l-2.554 2.554c-5.857 5.858-5.857 15.355 0 21.213zm73.502 42.296c-8.128-60.734-56.789-108.811-117.797-116.048v-17.914c0-.35-.029-.693-.052-1.037h13.052c8.284 0 15-6.716 15-15s-6.716-15-15-15h-14v-104.001h332v269z" data-original="#000000" class="active-path" data-old_color="#000000" fill="#0000FF"/><path d="m249.269 124.647-11.242 11.241c-5.878-4.44-14.279-3.98-19.633 1.376-5.858 5.857-5.858 15.355 0 21.213l9.129 9.129c2.929 2.929 6.768 4.394 10.606 4.394s7.678-1.465 10.606-4.394l21.746-21.746c5.858-5.857 5.858-15.355 0-21.213-5.857-5.857-15.355-5.857-21.212 0z" data-original="#000000" class="active-path" data-old_color="#000000" fill="#0000FF"/><path d="m430 131.127h-110c-8.284 0-15 6.716-15 15s6.716 15 15 15h110c8.284 0 15-6.716 15-15s-6.716-15-15-15z" data-original="#000000" class="active-path" data-old_color="#000000" fill="#0000FF"/><path d="m249.269 206.394-11.242 11.241c-5.878-4.439-14.279-3.98-19.633 1.376-5.858 5.857-5.858 15.355 0 21.213l9.129 9.129c2.929 2.929 6.768 4.394 10.606 4.394s7.678-1.465 10.606-4.394l21.746-21.746c5.858-5.857 5.858-15.355 0-21.213-5.857-5.858-15.355-5.858-21.212 0z" data-original="#000000" class="active-path" data-old_color="#000000" fill="#0000FF"/><path d="m430 202.001h-110c-8.284 0-15 6.716-15 15s6.716 15 15 15h110c8.284 0 15-6.716 15-15s-6.716-15-15-15z" data-original="#000000" class="active-path" data-old_color="#000000" fill="#0000FF"/><path d="m375 262h-55c-8.284 0-15 6.716-15 15s6.716 15 15 15h55c8.284 0 15-6.716 15-15s-6.716-15-15-15z" data-original="#000000" class="active-path" data-old_color="#000000" fill="#0000FF"/><path d="m150 370.787v-38.059c0-8.284-6.716-15-15-15s-15 6.716-15 15v44.272c0 3.979 1.581 7.794 4.394 10.606l28.5 28.5c2.929 2.929 6.768 4.394 10.606 4.394s7.678-1.465 10.606-4.394c5.858-5.857 5.858-15.355 0-21.213z" data-original="#000000" class="active-path" data-old_color="#000000" fill="#0000FF"/></g></g> </svg>
